<?xml version="1.0" encoding="utf-8"?>
<!-- Generator: Adobe Illustrator 23.0.2, SVG Export Plug-In . SVG Version: 6.00 Build 0)  -->
<svg version="1.1" id="Layer_1" xmlns="http://www.w3.org/2000/svg" xmlns:xlink="http://www.w3.org/1999/xlink" x="0px" y="0px"
	 viewBox="0 0 500 500" style="enable-background:new 0 0 500 500;" xml:space="preserve">
<style type="text/css">

	.st1{fill:#303032;}
	.st2{fill:#FBFBFB;}
	.st3{fill:#323234;}
	.st4{fill:#2F2F31;}
	.st5{fill:#353537;}
</style>
<g>

	<path class="st1" d="M44.56,240.94C44.23,130.39,135.16,41.32,244.52,41.57c108.37,0.24,198.98,88.52,198.98,199.42
		c0,108.79-87.18,199.88-200.08,199.63C132.23,440.37,44.35,350.42,44.56,240.94z M345.49,395.16c1.17-2.4-0.26-4.13-0.95-5.88
		c-1.59-3.99-3.34-7.92-5.21-11.79c-1.42-2.93-2.11-5.16,1.3-7.59c3.19-2.27,5.08-1.63,7.63,0.73c3.65,3.39,7.61,6.44,11.53,9.54
		c1.16,0.92,2.27,2.61,4.75,0.97c-3.35-5.72-6.73-11.38-9.97-17.12c-0.66-1.17-2.11-2.17-1.16-3.99c2.24-4.27,5.57-5.13,9.75-2.42
		c2.37,1.54,4.74,3.07,7.16,4.53c2.87,1.73,5.38,4.23,9.54,4.76c-2.98-6.87-7.94-11.62-12.21-16.79c-2.43-2.94-0.79-4.53,0.78-6.74
		c1.63-2.31,3.1-2.94,5.77-1.46c4.62,2.57,9.45,4.75,14.19,7.11c1.68,0.84,3.32,1.83,5.87,1.11c-4.1-5.86-9.12-10.22-13.88-14.78
		c-2.11-2.03-3.62-3.41-1.38-6.52c1.98-2.76,3.29-4.26,7.03-2.47c4.59,2.18,9.66,3.33,14.48,5.04c1.57,0.56,2.97,0.97,4.97-0.24
		c-4.73-5.13-10.21-8.61-15.16-12.7c-1.74-1.44-4.07-2.52-1.95-5.37c1.66-2.23,1.39-6.02,6.51-4.67c6.34,1.66,12.77,3.93,20.59,3.51
		c-5.5-5.4-11.57-8.15-17.04-11.73c-2.46-1.61-4.05-2.68-2.68-6.17c1.31-3.34,2.72-4.74,6.43-4.03c4.87,0.93,9.84,1.43,14.78,1.9
		c1.54,0.15,3.94,0.91,4.5-0.92c0.57-1.87-1.84-2.41-3.23-3.1c-4.58-2.29-9.18-4.56-13.87-6.63c-2.41-1.06-4.47-1.8-3.42-5.25
		c0.95-3.12,1.53-5.5,5.89-5.23c5.45,0.33,10.97-0.41,16.45-0.74c0.9-0.05,2.21,0.43,2.55-0.85c0.41-1.54-0.89-1.84-2.01-2.26
		c-4.79-1.81-9.77-2.9-14.74-4.06c-5.45-1.27-5.77-2.3-4.32-7.82c0.95-3.61,3.84-2.52,5.97-2.94c5.95-1.17,12.22-0.81,18.89-3.74
		c-6.92-3.58-13.65-3.76-20-4.94c-3.96-0.73-4.52-2.09-4.79-5.63c-0.31-4.05,1.76-4.94,4.8-5.68c6.16-1.51,12.57-2.23,18.33-5.16
		c-0.58-1.52-1.42-1.84-2.48-1.95c-6.1-0.61-12.19-1.4-18.31-1.83c-2.15-0.15-3.02-0.64-3.63-2.87c-1.1-4.01-0.69-6.4,3.93-7.56
		c4.28-1.07,8.34-3.05,12.49-4.66c1.92-0.74,4.08-1.17,5.2-3.43c-2.02-1.09-3.95-1.33-5.92-1.26c-4.99,0.19-9.98,0.36-14.96,0.66
		c-2.11,0.13-2.84-0.42-3.59-2.7c-1.38-4.22-1.02-6.75,3.52-8.43c3.68-1.37,7.14-3.41,10.57-5.36c1.85-1.05,4.38-1.44,5.3-4.43
		c-7.32-0.69-13.99,1.49-20.74,2.55c-2.32,0.37-3.27-0.02-4.16-2c-1.58-3.55-2.11-6.2,2.23-8.68c5.48-3.13,11.15-6.32,15.88-11.97
		c-2.7-0.02-4.37,0-6.18,0.59c-4.85,1.58-9.8,2.84-14.72,4.21c-2.26,0.63-4.29,0.69-5.14-2.13c-0.67-2.22-3.22-4.07,0.06-6.68
		c4.81-3.81,9.14-8.24,13.65-12.43c0.69-0.65,1.68-1.36,1.2-2.47c-0.79-1.82-2.05-0.44-2.91-0.12c-5.38,2.03-10.87,3.86-16.01,6.41
		c-4.39,2.18-4.84-1.68-6.84-3.45c-2.48-2.2-0.46-3.33,0.81-4.78c3.84-4.38,7.65-8.77,11.44-13.19c0.7-0.82,2.06-1.74,1.07-2.92
		c-0.83-1-2.23-0.19-3.12,0.25c-5.48,2.69-10.89,5.53-16.32,8.31c-1.71,0.88-3.62,2.59-5.05-0.12c-1.2-2.28-5.01-3.82-1.81-7.55
		c3.33-3.88,6.1-8.25,9.01-12.49c1.06-1.54,3.39-3.63,2.07-4.96c-1.77-1.79-3.95,0.65-5.6,1.74c-4.29,2.82-8.62,5.68-12.44,9.08
		c-3.31,2.94-4.19-0.74-5.97-1.65c-1.72-0.87-3.12-2.14-1.53-4.69c2.79-4.48,5.23-9.19,7.64-13.89c0.9-1.75,2.39-3.6,0.74-6.44
		c-5.22,4.75-10.34,9.19-15.19,13.9c-2.09,2.02-3.51,1.77-5.41-0.04c-1.63-1.55-4.62-1.87-2.85-5.56c2.48-5.18,4.27-10.69,6.4-16.05
		c0.54-1.36,1.61-3.13,0.15-3.95c-1.34-0.76-2.7,0.82-3.67,1.97c-3.55,4.18-7.31,8.21-10.51,12.65c-2.17,3.01-3.91,1.76-6.23,0.63
		c-2.55-1.24-3.99-2.51-2.92-5.71c1.51-4.51,2.88-9.12,3.66-13.79c0.33-1.99,2.29-4.39-0.29-6.67c-5.1,5.32-8.28,11.93-12.24,17.96
		c-1.38,2.1-2.62,1.81-3.98,0.87c-1.81-1.24-5.61-0.34-5.11-4.16c0.73-5.56,1.76-11.08,2.53-16.63c0.23-1.66,1.41-4.09-0.65-4.82
		c-1.66-0.59-2.36,1.78-3.11,3.22c-2.41,4.69-5.07,9.26-7.21,14.06c-1.97,4.43-4.92,1.56-7.56,1.55c-3.21-0.02-2.16-2.32-2.18-3.89
		c-0.06-5.5,0.1-11,0.03-16.5c-0.02-1.32,0.83-3.44-1.3-3.72c-1.88-0.25-2.07,1.92-2.57,3.17c-2.13,5.34-4.11,10.73-6.04,16.15
		c-0.61,1.72-1.53,3.61-3.36,2.47c-2.2-1.36-6.4,1.23-6.8-3.92c-0.44-5.56-1.78-11.05-2.79-16.56c-0.21-1.16,0.56-3.07-1.42-3.2
		c-2.08-0.13-2.01,2.09-2.36,3.29c-1.36,4.74-2.51,9.54-3.5,14.37c-0.68,3.29-1.81,4.98-5.78,4.88c-3.96-0.1-4.53-2.13-5.08-5.11
		c-0.92-5.02-1.94-10.02-3.22-14.96c-0.31-1.2-0.2-3.52-2.17-3.37c-1.38,0.11-1.5,1.86-1.65,3.25c-0.58,5.41-1.45,10.8-1.86,16.22
		c-0.19,2.53-0.68,4.39-3.53,4.23c-2.48-0.13-5.53,1.68-6.75-2.79c-1.45-5.37-3.82-10.49-5.81-15.71c-0.52-1.36-1-3.28-2.74-2.9
		c-1.31,0.28-1.25,2.13-1.23,3.49c0.07,5.33-0.1,10.68,0.24,15.99c0.2,3.07-0.77,4.23-3.73,5.15c-3.71,1.16-5.1,0.07-6.53-3.3
		c-2.53-5.95-4.84-12.12-9.02-17.52c-1.73,1.95-1.68,3.57-1.43,5.46c0.65,4.92,0.66,9.95,1.6,14.8c0.8,4.17-1.61,5.07-4.54,6.2
		c-3.4,1.32-4.31-1.19-5.64-3.25c-2.87-4.45-5.75-8.89-8.68-13.3c-0.68-1.02-1.24-2.47-3.25-1.71c0.05,6.64,2.47,12.87,4.18,19.16
		c1.09,3.98-0.64,4.8-3.38,6.58c-3.26,2.12-4.31,0.09-5.86-1.74c-0.97-1.14-1.81-2.39-2.85-3.45c-3.51-3.62-5.85-8.37-10.79-11.46
		c-0.38,2.28-0.4,3.87,0.32,5.65c1.86,4.56,3.31,9.29,5.25,13.82c1.35,3.13,0.92,4.76-2.28,6.53c-2.71,1.5-4.19,1.67-6.28-0.69
		c-2.87-3.23-6.1-6.15-9.2-9.17c-1.71-1.67-3.45-3.32-6.03-3.81c-0.63,2.47,0.59,4.15,1.46,5.87c2.09,4.14,4.08,8.36,6.49,12.31
		c1.67,2.74,1.54,4.52-1.08,6.51c-2.26,1.71-3.74,3.13-6.67,0.54c-4.19-3.71-9.03-6.69-13.64-9.91c-0.99-0.69-2.19-2.14-3.41-0.7
		c-0.83,0.99,0.13,2.15,0.79,3.12c2.98,4.38,5.77,8.91,8.99,13.12c2.23,2.91,2.24,4.8-0.56,7.48c-2.31,2.2-3.75,2.77-6.52,0.88
		c-4.21-2.88-8.74-5.3-13.18-7.84c-1.37-0.79-2.74-2.05-4.76-0.86c0.48,2.32,2.07,3.94,3.58,5.65c3.08,3.49,5.89,7.23,9.14,10.55
		c3.44,3.52-0.51,5.14-1.58,7.47c-1.31,2.88-3.3,1.16-4.95,0.44c-4.68-2.03-9.22-4.41-13.98-6.2c-1.4-0.53-3.58-2.54-4.81-0.44
		c-0.76,1.3,1.2,2.86,2.39,3.94c3.56,3.25,7.22,6.39,10.79,9.63c1.81,1.65,4.75,2.57,2.51,6.29c-1.91,3.17-3.28,5.17-7.51,3.39
		c-4.06-1.71-8.55-2.36-12.8-3.63c-1.92-0.57-3.73-0.81-7.15,0.07c5.85,4.17,10.54,7.95,15.67,11.02c3.85,2.3,4.91,4.37,2.42,8.41
		c-1.32,2.14-1.95,3.39-4.78,2.25c-2.24-0.9-4.85-1.09-7.31-1.18c-4.43-0.17-8.83-2.36-13.93-0.56c5.26,4.57,11.24,6.76,16.61,9.93
		c2.33,1.37,4.59,2.13,3.6,5.8c-1,3.66-2.64,5.32-6.55,4.73c-3.12-0.47-6.3-0.59-9.45-0.69c-3.33-0.1-6.81-0.86-10.36,1.68
		c6.16,4.02,12.84,5.37,18.96,8.01c1.48,0.64,4.49,0.72,3.26,3.12c-1.2,2.33,1.41,6.42-3.97,7.12c-6.91,0.89-14.01,1.13-21.12,3.36
		c1.24,2.44,3.33,2.75,5.11,3.29c4.25,1.29,8.59,2.31,12.86,3.55c2.4,0.7,5.26,0.65,4.68,4.86c-0.47,3.45-0.47,6.26-5.11,5.89
		c-1.58-0.13-3.28,0.38-4.83,0.9c-4.59,1.54-9.84,0.82-14.58,4.1c1.83,0.99,3.07,1.69,4.79,1.86c5.26,0.55,10.49,1.46,15.75,2.02
		c3.59,0.38,3.72,2.63,3.93,5.49c0.2,2.73-0.05,4.08-3.16,4.82c-5.59,1.33-11.04,3.31-16.5,5.15c-0.99,0.33-2.73,0.33-2.63,1.84
		c0.12,1.79,1.85,1.51,3.1,1.59c5.49,0.32,11,1.02,16.45,0.74c3.95-0.2,4.28,1.58,5.08,4.65c0.94,3.57-0.56,4.57-3.28,5.76
		c-5.14,2.25-10.16,4.78-15.18,7.29c-0.94,0.47-2.47,0.91-2.08,2.4c0.39,1.48,1.89,1.19,2.97,1.08c5.44-0.56,10.88-1.1,16.29-1.91
		c3.42-0.51,4.57,0.82,5.87,3.99c1.96,4.75-1.31,5.57-3.93,7.3c-5.01,3.3-10.83,5.46-15.67,10.75c7.43,0.16,13.49-2.22,19.72-3.31
		c3.17-0.55,5.23-1.36,7.05,2.54c1.77,3.78,0.89,5.52-2.25,7.56c-3.19,2.07-5.95,4.78-8.97,7.12c-2.04,1.58-4.34,2.9-5.37,6.27
		c6.93-0.9,12.85-3.51,18.78-5.74c3.77-1.42,5.59-0.83,7.37,2.64c1.3,2.54,1.5,4.08-0.78,6.3c-4.3,4.19-9.06,8.05-12.66,13.34
		c2.61,0.95,4.14-0.27,5.7-0.97c4.37-1.96,8.91-3.7,12.94-6.22c4.47-2.8,5.53,1.11,7.74,3.07c2.82,2.5-0.1,3.7-1.16,5.26
		c-3.62,5.32-8.62,9.7-10.96,16.1c6.09-2.03,11.12-5.77,16.29-9.19c2.59-1.71,4.4-2.62,7.25,0.05c2.87,2.68,2.63,4.61,0.73,7.5
		c-2.82,4.28-5.34,8.76-7.9,13.21c-0.7,1.21-1.85,2.48-0.58,4.22c6.26-3.26,10.98-8.52,16.47-12.78c0.96-0.75,1.55-2.15,3.31-1.54
		c4.83,1.68,6.28,5.33,4.15,10.18c-2.49,5.66-5.92,10.95-7.71,17.35c2.55-0.11,3.46-1.63,4.55-2.76c3.72-3.82,7.48-7.6,11-11.6
		c1.92-2.19,3.39-2.11,5.94-0.81c3.68,1.87,4.64,3.92,2.93,7.74c-1.69,3.76-2.86,7.76-4.16,11.68c-0.69,2.07-1.86,4.16-0.47,7.04
		c5.14-4.59,8.71-10.01,12.22-15.32c2.63-3.97,4.84-2.72,8.22-1.52c3.99,1.41,2.82,3.75,2.24,6.3c-0.26,1.13-0.65,2.25-0.75,3.4
		c-0.48,5.24-2.92,10.29-2,17.2c4.87-6.11,8.1-11.7,10.81-17.4c2.16-4.55,4.54-2.99,7.8-2.25c4.04,0.91,2.48,3.24,2.36,5.64
		c-0.33,6.49-2.36,12.92-1.05,19.69c2.47-0.7,2.9-2.62,3.64-4.17c1.93-4.03,4.15-8,5.46-12.23c1.47-4.74,3.94-4.94,8.19-3.88
		c4.12,1.02,2.81,4.09,3.08,6.26c0.73,5.93-0.44,12.09,1.93,18.19c2.24-1.47,2.51-3.58,3.07-5.36c1.39-4.41,3.04-8.84,3.61-13.38
		c0.66-5.24,4.04-3.36,6.88-3.6c3.47-0.3,3.37,1.9,3.84,4.35c1.21,6.35,1.24,12.98,3.84,19.24c2.34-1.63,2.38-3.85,2.8-5.68
		c1.04-4.52,1.56-9.14,2.42-13.7c0.46-2.44,1.13-3.98,4.54-4.44c4.75-0.64,5.83,1.18,6.57,5.08c0.74,3.87,2,7.67,3.27,11.41
		c0.7,2.05,0.5,4.69,3.85,6.31c0.54-6.97,1.62-13.54,1.35-20.06c-0.19-4.71,2.82-4.17,5.37-5.12c3.35-1.25,4.27,0.83,5.24,3.34
		c1.92,4.93,4,9.81,6.11,14.67c0.43,1,0.81,2.63,2.15,2.44c1.8-0.25,1.42-2.06,1.32-3.26c-0.47-5.29-1-10.58-1.71-15.84
		c-0.3-2.24-0.17-3.43,2.43-4.36c4-1.42,6.64-1.5,8.41,3.12c1.23,3.21,3.29,6.13,5.23,9.01c1.47,2.17,2.31,5.06,6.05,6.25
		c-1.35-7.4-2.57-14.19-3.83-20.97c-0.26-1.4-1.13-2.63,0.79-3.82c5.15-3.18,6.68-2.97,10.26,1.96c2.73,3.77,5.49,7.52,8.34,11.2
		c0.91,1.17,1.58,3,4.09,2.45c-0.97-6.62-3.04-12.92-5.24-19.04c-1.67-4.62,1.84-4.81,3.91-6.49c2.59-2.11,3.88-0.45,5.66,1.42
		C335.85,386.07,340.7,390.52,345.49,395.16z"/>
	
	<path class="st3" d="M142.24,310.24c2.43-1.04,4.78-2.44,7.31-3.02c2.8-0.64,5.26-5.29,8.54-1.27c3.52,4.31-1.91,5.74-3.2,8.44
		c-1.09,2.29-3.1,4.14-5.11,6.69c4.78-0.42,7.9-2.99,11.36-4.73c1.79-0.9,3.22-1.6,5.08,0.57c1.74,2.03,1.22,3.27,0.11,5.05
		c-1.9,3.03-4.49,5.67-5.8,9.83c4.17-0.86,6.57-3.44,9.19-5.69c1.6-1.38,3.05-2.72,5.54-0.9c2.73,2,1.03,3.57,0.29,5.49
		c-1.33,3.42-4.06,6.27-4.56,10.36c3.19-0.14,4-3.34,7.17-4.07c-1.07,4.79-3.85,7.71-7.7,9.67c-8.2,4.16-17.78,2.61-25.35-4.3
		c-21.16-19.29-35.16-42.83-40.45-71.04c-9.7-51.74,3.85-96.42,41.89-133.24c5.91-5.72,15.98-6.87,23.26-3.15
		c2.59,1.32,4.7,3.14,6.02,5.76c0.33,0.65,0.78,1.47-0.23,2.09c-2.69,1.66-2.63,1.65-1.41,4.36c1.15,2.57,2.03,5.28,3.32,7.77
		c1.19,2.28-0.26,3.31-1.56,4.63c-1.64,1.65-2.81,0.67-4.22-0.41c-3.64-2.8-7.39-5.46-12.19-8.98c2.13,5.55,5.15,9,7.44,12.85
		c0.95,1.59,2.54,2.89,0.35,5.11c-2.21,2.25-3.67,1.08-5.55-0.03c-3.13-1.84-6.32-3.58-9.49-5.37c-0.53-0.82-1.41-1.01-1.95-0.35
		c-0.43,0.52,0.31,1.04,0.88,1.31c1.78,3.66,5.04,6.14,7.42,9.33c1.31,1.76,1.57,2.93,0.18,4.74c-1.48,1.94-2.87,1.65-4.72,0.76
		c-4.11-1.97-8.29-3.77-12.44-5.64c-0.28,0.38-0.56,0.75-0.84,1.13c3.43,3.24,6.82,6.53,10.31,9.71c1.34,1.22,2.22,2.13,0.96,4.13
		c-1.22,1.94-2.32,2.29-4.45,1.58c-4.3-1.43-8.45-3.66-14.51-3.35c4.24,3.02,7.63,5.27,10.8,7.79c1.28,1.02,3.77,1.37,2.38,4.49
		c-1.35,3.03-3.27,2.81-5.6,2.35c-4.05-0.8-8.04-1.99-13.87-1.7c5.04,2.89,8.9,5.07,12.72,7.31c1.34,0.78,3.14,1.21,2.13,3.61
		c-0.81,1.93-1.41,3.21-4.06,3.16c-4.56-0.08-9.05-1.87-14.44-0.55c3.78,3.08,8.04,3.77,11.72,5.6c1.87,0.93,3.91,1.21,3.36,4.45
		c-0.55,3.22-2.51,2.34-4.32,2.48c-4.3,0.33-8.61,0.66-13.99,1.08c4.73,2.84,9.29,3.29,13.46,4.69c2.08,0.7,3.58,1.11,3.57,3.81
		c-0.02,2.91-1.76,3.03-3.86,3.38c-4.34,0.71-8.65,1.63-13.06,3.6c4.01,0.8,8.01,1.61,12.02,2.39c1.98,0.39,4.41-0.34,4.86,2.94
		c0.51,3.63-2.05,4.06-4.39,4.81c-3.87,1.24-7.88,2.1-11.37,5.37c4.48,0,8.97,0.17,13.44-0.06c2.56-0.13,3.28,0.93,3.87,3.2
		c0.69,2.64-0.81,3.03-2.59,3.85c-4.1,1.89-8.68,2.83-13.47,6.62c6.13-0.28,10.94-0.47,15.75-0.73c1.89-0.1,3.4-0.28,3.96,2.38
		c0.51,2.44-0.63,3.12-2.29,4.13c-3.71,2.27-7.88,3.88-11.56,7.59c4.73,0.04,8.5-1,12.31-1.85c2.12-0.47,4.13-0.87,5.29,2.01
		c1.05,2.61-0.4,3.58-2.07,4.79c-3.2,2.33-6.35,4.74-10.25,7.68c4.96,0.93,8.43-1.68,12.22-2.41c1.93-0.37,3.92-1.87,5.5,1.03
		c1.5,2.75-0.34,3.87-1.77,5.45c-2.66,2.95-6.12,5.16-8.16,8.68c-0.08,0.4-0.35,1.02-0.2,1.16
		C141.62,311.04,142.02,310.73,142.24,310.24z"/>
	<path class="st3" d="M331.76,154.76c-3.63,2.3-7.29,4.54-10.86,6.93c-1.38,0.93-2.41,1.53-3.77-0.03c-1.2-1.37-2.5-2.19-1.23-4.55
		c2.21-4.12,5.36-7.87,6.37-13.32c-4.74,2.51-7.61,6.19-11.01,9.22c-1.19,1.06-2.16,2.62-4.17,0.95c-1.71-1.42-2.58-2.59-1.63-5
		c1.68-4.22,4.11-8.22,4.72-13.52c-4.13,2.87-6.46,6.54-9.2,9.79c-1.38,1.63-2.41,2.78-4.87,1.32c-2.27-1.35-2.35-2.72-1.68-4.89
		c1.36-4.38,2.53-8.82,4.14-14.55c-4.51,4.06-6.84,8.03-9.41,11.79c-1.37,2.01-2.66,3.11-5.26,1.99c-2.77-1.19-1.66-3.12-1.42-5.02
		c0.49-3.85,2.11-7.58,1.32-12.31c-3.48,3.57-4.79,7.71-6.9,11.32c-1.03,1.76-1.57,3.27-4.42,2.54c-2.95-0.75-2.47-2.49-2.46-4.43
		c0.03-4.22,0.01-8.44-1-12.87c-1.68,4.03-3.36,8.05-5.03,12.08c-0.73,1.77-0.92,3.66-3.96,3.16c-2.76-0.45-2.73-1.87-3.18-3.94
		c-0.91-4.2-0.24-8.67-2.28-13.04c-2.24,4.06-2.47,8.4-3.72,12.41c-0.6,1.91-0.46,4.2-3.74,4.2c-3.37,0-3.18-2.47-3.68-4.33
		c-1.09-4.1-1.88-8.28-3.26-12.42c-2.17,4.4-1.98,9.19-2.91,13.73c-0.45,2.18-1,2.91-3.32,3.15c-2.64,0.27-3.12-1.24-3.66-2.96
		c-1.37-4.33-2.64-8.69-3.96-13.04c-0.57,0.06-1.13,0.11-1.7,0.17c0,4.33-0.02,8.66,0.01,12.99c0.02,2.21-0.59,3.6-3.1,4.22
		c-2.93,0.72-2.86-1.48-3.57-2.95c-2-4.12-3.92-8.27-6.34-12.3c-1.29,4.77,0.62,9.34,0.51,13.99c-0.05,2.07,0.52,3.32-2.15,4.32
		c-3,1.12-3.22-0.84-4.38-2.36c-2.69-3.53-4.15-7.89-8.08-11.83c-0.41,6.57,2.75,11.82,2.24,18.98
		c-5.02-6.96-10.13-12.42-9.87-20.39c0.27-8.17,5.07-13.62,12.18-16.87c9.01-4.12,18.71-5.86,28.48-7
		c68.93-8.08,136.12,39.4,151.64,110.12c2.64,12.05-4.86,21.57-17.26,21.71c-3.5,0.04-7-0.05-10.5,0.03
		c-1.93,0.04-3.11-0.48-3.43-2.64c-0.32-2.15,0.61-2.84,2.49-3.48c4.15-1.41,8.19-3.14,12.13-5.95c-3.51,0-7.04,0.16-10.54-0.05
		c-2.44-0.15-5.44,1.51-6.55-2.99c-1.18-4.8,2.94-4.06,4.76-5.37c2.98-2.15,6.49-3.57,9.78-5.3c-0.15-0.43-0.3-0.85-0.45-1.28
		c-3.97,0.63-7.92,1.41-11.91,1.82c-2.2,0.23-4.68,1.55-6.05-2.24c-1.35-3.75,1.75-3.84,3.22-5.04c2.9-2.37,6.15-4.33,9.06-6.87
		c-4.39-0.41-8.24,1.37-12.27,2.22c-1.69,0.36-3.57,1.66-4.98-1.23c-1.29-2.64-0.44-3.84,1.45-5.37c3.32-2.7,6.49-5.59,10.56-9.13
		c-5.59,0.21-9.28,2.85-13.36,4.12c-1.99,0.62-3.54,1.58-5.16-0.72c-1.6-2.28-0.83-3.66,0.8-5.51c2.76-3.14,6.28-5.7,8.82-10.48
		c-5.03,1.31-8.45,3.51-12.05,5.3c-1.83,0.91-3.42,2.43-5.62-0.03c-2.28-2.55-0.85-4.02,0.55-5.96c2.42-3.36,4.68-6.83,7.01-10.26
		c0.03-0.43,0.25-1.09,0.06-1.24C332.32,153.87,331.97,154.29,331.76,154.76z"/>
	<path class="st3" d="M332.14,325.87c-1.62-3.87-4.6-6.83-7.06-10.11c-1.58-2.1-0.55-3.11,0.63-4.67c1.43-1.88,2.52-1.19,4.1-0.28
		c4.3,2.47,7.96,6.01,12.69,7.76c0.4-0.04,0.79-0.08,1.19-0.12c-0.16-0.21-0.33-0.43-0.49-0.64c-1.98-3.75-5.39-6.26-8.14-9.33
		c-1.6-1.79-2.59-3.03-0.9-5.53c1.59-2.35,2.95-1.7,4.98-1.09c4.05,1.21,7.69,3.67,12.56,4.23c-2.58-4.39-6.58-6.53-9.8-9.43
		c-1.83-1.64-2.67-2.89-1.46-5.48c1.35-2.86,3.05-1.62,4.86-1.17c4.13,1.02,8.27,2.03,13.53,3.32c-4.01-4.3-8.24-6.28-11.99-8.89
		c-1.76-1.22-2.86-2.02-1.98-4.65c0.96-2.87,2.38-2.16,4.49-2.03c4.12,0.26,8.12,1.82,12.88,1.12c-3.48-3.53-7.85-4.7-11.64-6.76
		c-1.87-1.02-2.89-1.85-2.33-4.15c0.57-2.33,1.64-3.19,4.12-3.04c4.22,0.24,8.47,0.07,12.79-0.47c-3.38-3.33-7.88-3.73-11.83-5.32
		c-2.07-0.84-3.55-1.3-3.06-4.07c0.44-2.5,1.24-3.87,4.04-3.75c1.8,0.08,3.64-0.3,5.42-0.65c13.76-2.69,24.21,7.62,21.84,21.6
		c-1.82,10.73-5.37,20.9-10.1,30.66c-16.19,33.35-41.71,56.78-76.07,70.37c-15.44,6.11-31.9,7.84-48.38,8.56
		c-12.32,0.54-24.69,0.5-36.67-2.97c-9.22-2.67-17.38-6.83-19.64-17.58c-0.77-3.66-0.15-6.99,1.42-10.13c1.9-3.79,4.2-7.39,6.87-12
		c0.59,6.31-2.39,11.11-2.01,17.67c3.17-4.7,5.74-8.27,8.04-12.01c1.23-2,2.36-2.54,4.8-1.92c2.82,0.72,2.17,2.48,2.07,4.2
		c-0.27,4.46-1.6,8.86-0.76,13.94c2.91-3.82,4.07-8.09,6.06-11.92c0.87-1.67,1.14-3.76,4.19-2.76c2.55,0.84,3.8,1.64,3.56,4.63
		c-0.34,4.12-0.09,8.3-0.09,13.63c3.02-4.69,3.98-8.97,5.27-13.08c0.77-2.46,1.76-3.94,4.79-3.58c3.33,0.4,2.84,2.75,2.94,4.79
		c0.2,3.97-0.12,7.99,1.61,12.65c2.37-4.4,2.28-8.86,3.44-12.9c0.58-2.04,0.58-3.61,3.48-3.7c2.75-0.09,3.85,0.92,4.47,3.28
		c1.09,4.08,2.27,8.13,3.77,13.44c2.19-5.05,0.96-9.06,1.62-12.84c0.4-2.29,0.06-4.82,3.71-5.26c3.45-0.42,3.17,2.27,4.12,3.89
		c1.81,3.09,2.54,6.76,5.21,10.13c1.58-4.2-0.27-7.83-0.09-11.44c0.12-2.37-1.36-5.21,2.84-6.26c3.98-0.99,3.91,2.08,5.07,3.9
		c2.08,3.3,3.23,7.19,7.13,11.19c-0.87-5.28-1.59-9.18-2.13-13.1c-0.33-2.41-0.76-4.54,2.57-6c3.69-1.61,3.93,1.33,5.12,2.85
		c2.32,2.96,4.32,6.18,7.25,10.44c0.26-5.99-2.36-9.96-3.1-14.32c-0.32-1.89-1.01-3.34,1.4-4.38c2.02-0.88,3.45-1.21,5.11,0.8
		c2.84,3.42,6.02,6.57,9.89,10.74c-0.63-5.22-2.99-8.58-4.32-12.27c-0.73-2.04-2.15-3.99,0.85-5.84c2.68-1.65,3.87-0.11,5.51,1.36
		c3.15,2.83,6.41,5.54,10.03,7.95c-1.09-4.46-3.75-7.95-5.91-11.71c-0.78-1.36-2.56-2.65-0.05-4.56c2.02-1.54,3.27-2.01,5.48-0.46
		c3.1,2.18,5.94,4.82,9.57,6.18c0.39,0.11,1.03,0.41,1.12,0.29C332.99,326.33,332.62,326.03,332.14,325.87z"/>
	<path class="st4" d="M155.08,242.36c0.97-30.03,12.24-53.23,34.41-71.08c2.32-1.87,3.52-1.5,4.96,0.98
		c10.8,18.7,22.05,37.15,32.4,56.09c4.88,8.93,4.27,18.79-0.81,27.76c-10.17,17.91-20.7,35.61-30.95,53.46
		c-1.69,2.95-2.82,3.66-5.81,1.2c-17.61-14.49-28.64-32.81-32.7-55.24C155.7,250.65,155.45,245.64,155.08,242.36z"/>
	<path class="st4" d="M244.45,329.91c-11.47-0.64-22.21-2.32-32.57-6.17c-2.43-0.9-3.21-1.69-1.76-4.18
		c11.2-19.22,21.96-38.7,33.58-57.65c5.15-8.39,13.83-12.28,23.79-12.34c19.8-0.1,39.61,0.06,59.41-0.09
		c4.26-0.03,5.17,0.91,4.31,5.39c-7.33,38.17-29.89,62.08-67.08,72.46C257.58,329.17,250.73,329.37,244.45,329.91z"/>
	<path class="st4" d="M295.68,231.91c-9.66,0-19.33-0.09-28.99,0.02c-11.22,0.13-19.85-5.06-25.42-14.16
		c-10.84-17.72-20.86-35.95-31.28-53.93c-1.52-2.62-1.29-3.78,1.87-4.98c52.59-19.94,109.88,12.86,119.34,68.3
		c0.68,3.98-0.18,4.9-4.03,4.82C316.68,231.77,306.18,231.91,295.68,231.91z"/>
	<path class="st5" d="M251.85,240.89c0.07,4.08-3.91,8.05-8,7.97c-3.92-0.08-7.62-3.8-7.69-7.75c-0.07-4.12,3.87-8.06,7.97-7.97
		C248.02,233.23,251.78,237.01,251.85,240.89z"/>
	<path class="st2" d="M151.21,163.66c-0.57-0.27-1.31-0.79-0.88-1.31c0.54-0.66,1.42-0.47,1.95,0.35
		C151.92,163.02,151.57,163.34,151.21,163.66z"/>
	<path class="st2" d="M142.24,310.24c-0.22,0.49-0.62,0.8-1.04,0.42c-0.16-0.14,0.12-0.76,0.2-1.16
		C141.67,309.74,141.96,309.99,142.24,310.24z"/>
	<path class="st2" d="M331.76,154.76c0.2-0.48,0.56-0.9,1.03-0.51c0.19,0.16-0.03,0.81-0.06,1.24
		C332.41,155.25,332.09,155.01,331.76,154.76z"/>
	<path class="st2" d="M343.2,317.81c0.16,0.21,0.33,0.43,0.49,0.64c-0.4,0.04-0.79,0.08-1.19,0.12
		C342.73,318.32,342.97,318.06,343.2,317.81z"/>
	<path class="st2" d="M332.14,325.87c0.48,0.16,0.85,0.46,0.49,0.95c-0.09,0.12-0.73-0.18-1.12-0.29
		C331.71,326.29,331.92,326.08,332.14,325.87z"/>
</g>
</svg>
