<?xml version="1.0" encoding="utf-8"?>
<!-- Generator: Adobe Illustrator 23.0.2, SVG Export Plug-In . SVG Version: 6.00 Build 0)  -->
<svg version="1.1" id="Layer_1" xmlns="http://www.w3.org/2000/svg" xmlns:xlink="http://www.w3.org/1999/xlink" x="0px" y="0px"
	 viewBox="0 0 500 500" style="enable-background:new 0 0 500 500;" xml:space="preserve">
<style type="text/css">
 <!--FFC621 // A1BE00 // FF968E-->
	.st1{fill:#E5867F;}
	.st2{fill:#9F5953;}

</style>
<g>
	<path class="st2" d="M455.22,110.31c-4.95,4.9-9.96,9.75-14.81,14.75c-1.47,1.51-2.3,1.72-3.91,0.1
		c-15.47-15.6-31.01-31.14-46.61-46.61c-1.63-1.61-1.41-2.44,0.1-3.91c5-4.86,9.84-9.86,14.75-14.81c0.26,0,0.52,0,0.78,0
		c-0.13,0.95,0.69,1.3,1.19,1.81c15.56,15.58,31.13,31.15,46.71,46.71c0.51,0.51,0.86,1.32,1.81,1.19
		C455.22,109.79,455.22,110.05,455.22,110.31z"/>

	<path class="st1 " d="M311.23,109.56c-10.84,10.55-21.21,20.63-31.57,30.72c-4.36,4.24-8.81,8.4-13.03,12.78
		c-1.95,2.03-3.96,2.81-6.79,2.81c-50.36-0.09-100.72-0.03-151.08-0.13c-3.39-0.01-4.55,0.64-4.54,4.36
		c0.12,82.08,0.11,164.16,0.02,246.24c0,3.13,0.62,4.14,3.95,4.13c82.34-0.1,164.68-0.1,247.02,0.02c3.45,0,3.86-1.11,3.85-4.12
		c-0.09-51.01-0.04-102.02-0.13-153.03c0-2.68,0.76-4.53,2.66-6.39c14.53-14.17,28.96-28.45,43.42-42.7
		c1.32,0.81,0.77,1.96,0.77,2.86c0.03,66.42,0.1,132.83-0.01,199.25c-0.04,25.1-15.12,44.25-38.85,49.93
		c-4.04,0.97-8.16,1.27-12.31,1.27c-81.95-0.01-163.9,0.01-245.85-0.02c-29.59-0.01-51.24-21.6-51.26-51.14
		c-0.04-81.95-0.04-163.9,0-245.85c0.01-29.22,20.67-51.01,49.91-51.18c67.32-0.39,134.64-0.13,201.96-0.12
		C309.74,109.25,310.1,109.36,311.23,109.56z"/>
	<path class="st2" d="M171.66,343.22c4.01-12.88,7.93-25.51,11.88-38.13c3.31-10.59,6.67-21.16,9.94-31.76
		c0.67-2.16,1.76-3.89,3.37-5.5c48.71-48.65,97.4-97.32,146-146.08c2.33-2.34,3.41-2.2,5.64,0.06
		c14.71,14.93,29.54,29.75,44.47,44.47c2.38,2.35,2.72,3.6,0.12,6.2c-48.67,48.5-97.24,97.12-145.81,145.73
		c-1.39,1.39-2.8,2.56-4.74,3.16c-23.16,7.19-46.3,14.43-69.44,21.65C172.75,343.12,172.39,343.12,171.66,343.22z M357.59,153.5
		c-0.55-0.61-0.97-1.09-1.42-1.55c-1.44-1.49-3.09-2.82-4.3-4.47c-1.98-2.69-3.34-2.29-5.61-0.05
		c-40.08,39.55-80.25,79.01-120.4,118.48c-6.35,6.24-6.28,6.15-0.05,12.66c1.86,1.94,2.86,1.95,4.78,0.05
		c15.52-15.42,31.15-30.72,46.75-46.05c25.94-25.5,51.88-50.99,77.82-76.5C355.98,155.25,356.75,154.39,357.59,153.5z"/>
	<path class="st2" d="M359.31,105.39c5.38-5.38,10.53-10.47,15.6-15.63c1.04-1.06,1.63-1.09,2.72,0
		c15.89,15.96,31.81,31.89,47.78,47.77c1.27,1.26,0.66,1.84-0.23,2.72c-4.5,4.47-9.11,8.84-13.4,13.5
		c-1.89,2.06-2.74,1.09-4.14-0.32c-13.6-13.67-27.24-27.31-40.89-40.93C364.37,110.13,361.89,107.85,359.31,105.39z"/>

</g>
<g>
</g>
<g>
</g>
<g>
</g>
<g>
</g>
<g>
</g>
</svg>
