<?xml version="1.0" encoding="utf-8"?>
<!-- Generator: Adobe Illustrator 23.0.2, SVG Export Plug-In . SVG Version: 6.00 Build 0)  -->
<svg version="1.1" id="Layer_1" xmlns="http://www.w3.org/2000/svg" xmlns:xlink="http://www.w3.org/1999/xlink" x="0px" y="0px"
	 viewBox="0 0 500 500" style="enable-background:new 0 0 500 500;" xml:space="preserve">
<style type="text/css">
	.st0{fill:#FCFCFD;}
	.st1{fill:#2E446D;}
	.st2{fill:#E6E6E7;}
	.st3{fill:#0190FA;}
	.st4{fill:#3A4E74;}
	.st5{fill:#0970BD;}
</style>
<g>

	<path class="st1" d="M156.06,380.56c17.83,0.07,35.65,0.2,53.48,0.21c41.83,0.03,83.66-0.03,125.49,0.1
		c3.77,0.01,5.56-0.71,5.01-4.86c-0.35-2.62-0.02-5.33-0.09-7.99c-0.1-3.65,0.49-6.98,5.01-7.08c4.54-0.11,5.25,3.13,5.18,6.84
		c-0.08,4.83-0.01,9.67-0.02,14.5c-0.02,7.8-0.88,8.69-8.52,8.7c-34.66,0.01-69.33,0.01-103.99,0.01c-37.5,0-74.99,0-112.49-0.01
		c-6.93,0-8.15-1.21-8.15-8.09c0-93.49,0-186.99,0-280.48c0-6.78,1.3-8.08,8.22-8.08c48.16-0.01,96.33,0.04,144.49-0.09
		c4.05-0.01,6.77,1.62,9.64,4.15c22.12,19.51,44.3,38.95,66.6,58.25c3.06,2.65,4.3,5.37,4.26,9.41
		c-0.25,25.66-0.26,51.33-0.36,76.99c-0.01,1.5,0.09,3.04-0.22,4.48c-0.54,2.54-2.24,4.22-4.86,4.25c-2.82,0.03-4.73-1.57-5.15-4.45
		c-0.24-1.63-0.16-3.32-0.15-4.99c0.16-24.33,0.28-48.66,0.55-72.99c0.03-2.91-0.72-4.94-2.99-6.85
		c-9.69-8.14-19.23-16.45-28.82-24.7c-9.92-8.84-20.13-17.38-29.65-26.62c-5.37-5.21-11.09-6.54-18.3-6.46
		c-34.75,0.38-69.5,0.26-104.25,0.32c-8.27-0.03-16.55,0.01-24.82-0.14c-2.82-0.05-4.24,0.59-4.17,3.82
		c0.21,9.76,0.16,19.52,0.22,29.29c-0.03,0.67-0.09,1.33-0.09,2c-0.01,78.65-0.01,157.29-0.02,235.94c0,0.5,0.06,1.01,0,1.5
		c-0.33,2.69,0.97,3.45,3.49,3.4C139.08,380.66,147.57,380.64,156.06,380.56z"/>
	<path class="st2" d="M156.06,380.56c-8.49,0.08-16.98,0.1-25.47,0.27c-2.52,0.05-3.82-0.72-3.49-3.4c0.06-0.49,0-1,0-1.5
		c0-78.65,0.01-157.29,0.02-235.94c0-0.67,0.06-1.33,0.09-1.99c9.61-0.13,19.23-0.27,28.85-0.4l-0.03,0.47
		c0,18.73-0.02,37.47,0.01,56.2c0,1.59-0.55,3.35,0.88,4.7c-0.96,2.02-0.96,4.04,0,6.06c-1.99,7.06-0.54,14.26-0.83,21.39
		c-0.1,2.5-0.99,5.25,0.9,7.57c-0.64,1.69-1.18,3.4-0.66,5.24c-0.1,9.06-0.21,18.12-0.31,27.18c-0.01,1.02,0.14,1.97,1.06,2.62
		c-0.72,1.71-1.26,3.45-0.81,5.33c-0.08,7.7-0.16,15.41-0.24,23.11c-0.01,1.02,0.17,1.96,1.09,2.58c-1.29,2.3-1.26,4.59,0.04,6.88
		c-1.13,0.74-1.15,1.9-1.14,3.06c0.07,9.52,0.14,19.04,0.21,28.56c-0.41,1.92,0.08,3.69,0.85,5.42c-1.47,1.09-1.05,2.7-1.06,4.14
		C156.01,358.93,156.04,369.74,156.06,380.56z"/>
	<path class="st1" d="M271.36,237.56c-0.11-3.75,3.29-6.55,7.18-5.39c12.26,3.66,24.59,7,37.01,10.04c1.67,0.41,2.85,1.61,4.04,2.8
		c36.78,36.95,73.58,73.88,110.38,110.81c5.76,5.78,5.78,6.89,0.16,12.58c-7.38,7.47-14.75,14.93-22.12,22.4
		c-6.32,6.4-7.36,6.42-13.58,0.19c-35.53-35.61-71-71.27-106.66-106.75c-4.05-4.03-6.65-8.27-7.89-13.87
		c-2.12-9.56-4.93-18.98-7.43-28.46C272.05,240.48,271.71,239.02,271.36,237.56z M314.66,255.16c-0.69,0.64-1.3,1.17-1.86,1.73
		c-5.51,5.55-10.93,11.2-16.57,16.62c-2.04,1.96-1.5,3.06,0.2,4.76c27.77,27.79,55.52,55.62,83.19,83.51
		c1.93,1.94,3.03,1.71,4.77-0.1c5.19-5.4,10.45-10.74,15.87-15.91c2.04-1.95,2.05-3.11,0.02-5.13
		c-27.69-27.64-55.29-55.37-82.93-83.07C316.55,256.74,315.64,256.03,314.66,255.16z M401.22,382.97c0.88-0.83,1.62-1.48,2.31-2.17
		c3.16-3.18,6.3-6.37,9.45-9.56c9.22-9.32,9.17-9.27-0.57-18.49c-1.87-1.77-2.94-2.01-4.74-0.03c-3.01,3.31-6.28,6.38-9.45,9.56
		c-9.85,9.89-9.85,9.89,1.06,19.1C399.89,381.89,400.52,382.39,401.22,382.97z M283.71,244.47c2.03,7.49,3.76,13.92,5.25,19.43
		c4.82-4.69,9.62-9.35,14.51-14.1C297.37,248.15,291.02,246.44,283.71,244.47z"/>
	<path class="st3" d="M155.99,105.03c34.75-0.06,69.5,0.06,104.25-0.32c7.21-0.08,12.93,1.25,18.3,6.46
		c9.52,9.25,19.73,17.79,29.65,26.62c-9.34,0.05-18.69,0.11-28.03,0.16c-0.05-4.64-0.08-9.28-0.16-13.92
		c-0.05-3.52-1.79-5.91-5.36-5.8c-3.33,0.11-4.75,2.53-4.76,5.82c-0.02,4.64-0.16,9.27-0.24,13.91
		c-37.87,0.03-75.74,0.06-113.62,0.09c0,0,0.03-0.47,0.03-0.47C156.03,126.74,156.01,115.88,155.99,105.03z"/>
	<path class="st4" d="M157.07,343.97c-0.78-1.73-1.27-3.5-0.85-5.42c1.67-2.41,4.03-3.17,6.89-3.17
		c45.62,0.04,91.23,0.03,136.85,0.02c3.67,0,7,0.87,6.96,5.25c-0.04,4.29-3.26,5.25-6.99,5.25c-45.62-0.02-91.23-0.03-136.85,0.02
		C160.79,345.92,158.83,345.37,157.07,343.97z"/>
	<path class="st1" d="M156.91,205.03c-0.96-2.02-0.96-4.04,0-6.06c1.76-1.84,3.98-2.07,6.4-2.07c45.44,0.04,90.87,0.04,136.31,0
		c3.64,0,7.1,0.47,7.24,4.85c0.15,4.7-3.34,5.36-7.24,5.35c-45.44-0.05-90.87-0.04-136.31,0
		C160.88,207.1,158.68,206.87,156.91,205.03z"/>
	<path class="st4" d="M157.15,306.93c-1.3-2.29-1.34-4.58-0.04-6.88c1.78-1.36,3.76-1.89,6.03-1.88
		c30.78,0.04,61.56,0.04,92.34,0.01c2.45,0,4.69,0.4,6.09,2.63c1.8,2.87,0.34,6.57-3.07,7.53c-1.41,0.39-2.96,0.35-4.44,0.35
		c-29.95,0.02-59.9,0-89.84,0.03C161.67,308.73,159.22,308.62,157.15,306.93z"/>
	<path class="st1" d="M156.26,274.36c-0.45-1.89,0.09-3.62,0.81-5.33c1.87-1.62,4.06-1.96,6.48-1.96
		c30.45,0.05,60.89,0.05,91.34,0.03c3.85,0,7.33,0.62,7.24,5.4c-0.08,4.55-3.57,4.95-7.14,4.95c-30.61-0.01-61.22-0.02-91.83,0.02
		C160.3,277.46,157.9,276.85,156.26,274.36z"/>
	<path class="st1" d="M156.32,239.23c-0.52-1.84,0.01-3.54,0.66-5.24c1.71-1.48,3.64-2.03,5.94-2.02
		c30.79,0.06,61.57,0.05,92.36,0.01c3.73,0,6.87,0.8,6.85,5.25c-0.01,4.2-3,4.98-6.55,4.98c-30.95-0.03-61.9-0.03-92.86,0.02
		C160.01,242.24,157.84,241.54,156.32,239.23z"/>
	<path class="st1" d="M269.63,137.98c0.09-4.64,0.22-9.27,0.24-13.91c0.01-3.3,1.43-5.72,4.76-5.82c3.56-0.11,5.3,2.28,5.36,5.8
		c0.07,4.64,0.11,9.28,0.16,13.92c-0.04,3.83-0.23,7.66-0.11,11.48c0.27,8.58,5.97,14.39,14.54,14.57
		c9.15,0.19,18.31,0.09,27.47,0.04c3.7-0.02,6.92,0.73,6.97,5.16c0.05,4.57-3.29,5.11-6.94,5.09c-8.82-0.05-17.65,0.08-26.47-0.04
		c-14.07-0.19-25.55-11.75-25.78-25.81C269.78,144.96,269.7,141.47,269.63,137.98z"/>
	<path class="st5" d="M155.99,105.03c0.02,10.86,0.04,21.71,0.06,32.57c-9.62,0.13-19.23,0.27-28.85,0.4
		c-0.05-9.76-0.01-19.53-0.22-29.29c-0.07-3.22,1.35-3.87,4.17-3.82C139.43,105.04,147.71,104.99,155.99,105.03z"/>
	<path class="st0" d="M314.66,255.16c0.98,0.87,1.88,1.58,2.7,2.4c27.63,27.7,55.24,55.43,82.93,83.07
		c2.03,2.03,2.02,3.18-0.02,5.13c-5.41,5.17-10.68,10.51-15.87,15.91c-1.74,1.82-2.85,2.05-4.77,0.1
		c-27.67-27.89-55.42-55.71-83.19-83.51c-1.7-1.7-2.24-2.8-0.2-4.76c5.64-5.41,11.06-11.07,16.57-16.62
		C313.37,256.33,313.97,255.8,314.66,255.16z"/>
	<path class="st0" d="M401.22,382.97c-0.71-0.58-1.33-1.08-1.94-1.6c-10.91-9.21-10.91-9.21-1.06-19.1
		c3.16-3.17,6.44-6.24,9.45-9.56c1.8-1.99,2.87-1.74,4.74,0.03c9.74,9.23,9.79,9.17,0.57,18.49c-3.15,3.19-6.29,6.38-9.45,9.56
		C402.84,381.49,402.11,382.14,401.22,382.97z"/>
	<path class="st0" d="M283.71,244.47c7.3,1.97,13.65,3.68,19.76,5.33c-4.89,4.75-9.68,9.41-14.51,14.1
		C287.48,258.39,285.74,251.96,283.71,244.47z"/>
</g>
<g>
</g>
<g>
</g>
<g>
</g>
<g>
</g>
<g>
</g>
</svg>
