<svg version="1.1" id="Layer_1" xmlns="http://www.w3.org/2000/svg" xmlns:xlink="http://www.w3.org/1999/xlink" x="0px" y="0px"
	 viewBox="0 0 500 500" style="enable-background:new 0 0 500 500;" xml:space="preserve">
<style type="text/css" >
	<![CDATA[

		#plug,
		#socket { fill:#FDB515 }

		#loop-normal { fill: none; stroke: #FDB515; stroke-width: 12 }
		#loop-offset { fill:none; stroke: #FDB515 }

	]]>
</style>

<path class="st1" d="M120.5,60.5 L146.48,87.02 c14.64,14.64,38.39,14.65,53.03,0s14.64-38.39,0-53.03s-38.39-14.65-53.03,0L120.5,60.5L94.52,
87.02c-14.64,14.64-38.39,14.64-53.03,0c-14.64-14.64-14.64-38.39,0-53.03c14.65-14.64,38.39-14.65,53.03,0z">

</path>

<path id="loop-offset" d="M146.48,87.02c14.64,14.64,38.39,14.65,53.03,0s14.64-38.39,0-53.03s-38.39-14.65-53.03,0L120.5,60.5
L94.52,87.02c-14.64,14.64-38.39,14.64-53.03,0c-14.64-14.64-14.64-38.39,0-53.03c14.65-14.64,38.39-14.65,53.03,0L120.5,60.5
L146.48,87.02z"/>

<path id="socket" d="M7.5,0c0,8.28-6.72,15-15,15l0-30C0.78-15,7.5-8.28,7.5,0z"/>

<path id="plug" d="M0,9l15,0l0-5H0v-8.5l15,0l0-5H0V-15c-8.29,0-15,6.71-15,15c0,8.28,6.71,15,15,15V9z"/>

</svg>
